REM MD5 862c6f8343aa1b0856ce19507adcb058
FILE "Love^2 Torokko (Japan) (Demo).bin" BINARY
  TRACK 01 MODE2/2352
    INDEX 01 00:00:00
  TRACK 02 AUDIO
    INDEX 00 30:14:73
    INDEX 01 30:16:73
  TRACK 03 AUDIO
    INDEX 00 34:38:27
    INDEX 01 34:40:27
  TRACK 04 AUDIO
    INDEX 00 36:00:56
    INDEX 01 36:02:56
  TRACK 05 AUDIO
    INDEX 00 36:13:01
    INDEX 01 36:15:01
REM LEADOUT 40:36:30
